<?xml version="1.0" encoding="UTF-8"?>
<!DOCTYPE svg PUBLIC "-//W3C//DTD SVG 1.1//EN" "http://www.w3.org/Graphics/SVG/1.1/DTD/svg11.dtd">
<svg xmlns="http://www.w3.org/2000/svg" version="1.1" width="512px" height="512px" style="shape-rendering:geometricPrecision; text-rendering:geometricPrecision; image-rendering:optimizeQuality; fill-rule:evenodd; clip-rule:evenodd" xmlns:xlink="http://www.w3.org/1999/xlink">
<g><path style="opacity:0.996" fill="#1877f2" d="M 232.5,-0.5 C 247.833,-0.5 263.167,-0.5 278.5,-0.5C 367.481,10.0425 434.648,53.7092 480,130.5C 497.292,162.535 507.792,196.535 511.5,232.5C 511.5,247.833 511.5,263.167 511.5,278.5C 500.957,367.481 457.291,434.648 380.5,480C 353.863,494.601 325.529,504.101 295.5,508.5C 295.5,448.833 295.5,389.167 295.5,329.5C 315.409,329.826 335.243,329.493 355,328.5C 358.603,304.446 362.436,280.446 366.5,256.5C 342.843,255.5 319.176,255.167 295.5,255.5C 295.333,236.497 295.5,217.497 296,198.5C 298.869,183.298 307.702,173.465 322.5,169C 338.117,167.58 353.784,167.08 369.5,167.5C 369.5,146.5 369.5,125.5 369.5,104.5C 350.924,101.909 332.257,100.242 313.5,99.5C 253.775,100.726 221.275,131.06 216,190.5C 215.5,212.164 215.333,233.831 215.5,255.5C 193.833,255.5 172.167,255.5 150.5,255.5C 150.5,280.167 150.5,304.833 150.5,329.5C 172.167,329.5 193.833,329.5 215.5,329.5C 215.5,389.167 215.5,448.833 215.5,508.5C 134.064,494.181 72.5644,451.514 31,380.5C 13.7076,348.465 3.20759,314.465 -0.5,278.5C -0.5,263.167 -0.5,247.833 -0.5,232.5C 10.0425,143.519 53.7092,76.352 130.5,31C 162.535,13.7076 196.535,3.20759 232.5,-0.5 Z"/></g>
<g><path style="opacity:0.471" fill="#fefffe" d="M 215.5,508.5 C 217.527,508.338 219.527,508.505 221.5,509C 219.288,509.789 217.288,509.622 215.5,508.5 Z"/></g>
<g><path style="opacity:0.471" fill="#fefffe" d="M 295.5,508.5 C 293.712,509.622 291.712,509.789 289.5,509C 291.473,508.505 293.473,508.338 295.5,508.5 Z"/></g>
<g><path style="opacity:0.502" fill="#fefffe" d="M 222.5,510.5 C 224.966,509.366 227.633,509.199 230.5,510C 227.854,510.497 225.187,510.664 222.5,510.5 Z"/></g>
<g><path style="opacity:0.502" fill="#fefffe" d="M 280.5,510.5 C 282.966,509.366 285.633,509.199 288.5,510C 285.854,510.497 283.187,510.664 280.5,510.5 Z"/></g>
<g><path style="opacity:0.549" fill="#fefffe" d="M 232.5,511.5 C 236.5,510.167 240.5,510.167 244.5,511.5C 240.5,511.5 236.5,511.5 232.5,511.5 Z"/></g>
<g><path style="opacity:0.549" fill="#fefffe" d="M 266.5,511.5 C 270.5,510.167 274.5,510.167 278.5,511.5C 274.5,511.5 270.5,511.5 266.5,511.5 Z"/></g>
</svg>
