<?xml version="1.0" encoding="UTF-8"?>
<!DOCTYPE svg PUBLIC "-//W3C//DTD SVG 1.1//EN" "http://www.w3.org/Graphics/SVG/1.1/DTD/svg11.dtd">
<svg xmlns="http://www.w3.org/2000/svg" version="1.1" width="512px" height="512px" style="shape-rendering:geometricPrecision; text-rendering:geometricPrecision; image-rendering:optimizeQuality; fill-rule:evenodd; clip-rule:evenodd" xmlns:xlink="http://www.w3.org/1999/xlink">
<g><path style="opacity:0.989" fill="#00f4ec" d="M 336.5,46.5 C 317.167,46.5 297.833,46.5 278.5,46.5C 278.667,150.834 278.5,255.167 278,359.5C 275.671,386.202 262.504,405.202 238.5,416.5C 237.833,416.5 237.5,416.833 237.5,417.5C 236.167,417.833 234.833,418.167 233.5,418.5C 232.508,418.328 231.842,418.662 231.5,419.5C 230.833,419.5 230.167,419.5 229.5,419.5C 228.833,419.5 228.5,419.833 228.5,420.5C 227.5,420.5 226.5,420.5 225.5,420.5C 224.209,420.263 223.209,420.596 222.5,421.5C 221.167,421.5 219.833,421.5 218.5,421.5C 215.5,421.5 212.5,421.5 209.5,421.5C 208.167,421.5 206.833,421.5 205.5,421.5C 204.791,420.596 203.791,420.263 202.5,420.5C 201.5,420.5 200.5,420.5 199.5,420.5C 199.5,419.833 199.167,419.5 198.5,419.5C 197.5,419.5 196.5,419.5 195.5,419.5C 195.5,418.833 195.167,418.5 194.5,418.5C 174.919,411.252 161.252,397.919 153.5,378.5C 153.5,377.833 153.833,377.5 154.5,377.5C 186.778,396.538 215.611,392.205 241,364.5C 248.488,354.039 252.821,342.372 254,329.5C 254.5,224.834 254.667,120.167 254.5,15.5C 280.5,15.5 306.5,15.5 332.5,15.5C 332.978,25.9539 334.312,36.2873 336.5,46.5 Z"/></g>
<g><path style="opacity:0.958" fill="#fd004e" d="M 336.5,46.5 C 342.833,46.5 349.167,46.5 355.5,46.5C 356.018,63.2358 359.684,79.2358 366.5,94.5C 351.96,81.438 341.96,65.438 336.5,46.5 Z"/></g>
<g><path style="opacity:0.996" fill="#000000" d="M 336.5,46.5 C 341.96,65.438 351.96,81.438 366.5,94.5C 367.338,94.8417 367.672,95.5084 367.5,96.5C 379.204,119.35 397.204,136.183 421.5,147C 427.427,149.143 433.427,150.976 439.5,152.5C 439.5,152.833 439.5,153.167 439.5,153.5C 439.817,169.578 439.484,185.578 438.5,201.5C 398.6,203.976 363.266,192.643 332.5,167.5C 331.667,224.164 331.167,280.83 331,337.5C 324.213,392.596 296.046,432.429 246.5,457C 188.735,479.652 136.735,470.485 90.5,429.5C 89.8902,428.609 89.5569,427.609 89.5,426.5C 81.364,411.106 75.5306,394.439 72,376.5C 64.9127,325.09 80.0794,281.59 117.5,246C 123.765,240.561 130.432,235.728 137.5,231.5C 138.167,231.5 138.5,231.167 138.5,230.5C 140.5,229.5 142.5,228.5 144.5,227.5C 145.167,227.5 145.5,227.167 145.5,226.5C 146.391,225.89 147.391,225.557 148.5,225.5C 149.167,225.5 149.5,225.167 149.5,224.5C 149.833,224.5 150.167,224.5 150.5,224.5C 151.167,224.5 151.5,224.167 151.5,223.5C 151.833,223.5 152.167,223.5 152.5,223.5C 153.167,223.5 153.5,223.167 153.5,222.5C 153.833,222.5 154.167,222.5 154.5,222.5C 155.167,222.5 155.5,222.167 155.5,221.5C 156.833,221.167 158.167,220.833 159.5,220.5C 160.167,220.5 160.5,220.167 160.5,219.5C 161.833,219.167 163.167,218.833 164.5,218.5C 165.167,218.5 165.5,218.167 165.5,217.5C 166.167,217.5 166.833,217.5 167.5,217.5C 168.167,217.5 168.5,217.167 168.5,216.5C 169.167,216.5 169.833,216.5 170.5,216.5C 171.167,216.5 171.5,216.167 171.5,215.5C 172.167,215.5 172.833,215.5 173.5,215.5C 174.492,215.672 175.158,215.338 175.5,214.5C 176.167,214.5 176.833,214.5 177.5,214.5C 178.492,214.672 179.158,214.338 179.5,213.5C 180.167,213.5 180.833,213.5 181.5,213.5C 182.791,213.737 183.791,213.404 184.5,212.5C 185.167,212.5 185.833,212.5 186.5,212.5C 187.791,212.737 188.791,212.404 189.5,211.5C 190.5,211.5 191.5,211.5 192.5,211.5C 194.415,211.784 196.081,211.451 197.5,210.5C 198.833,210.5 200.167,210.5 201.5,210.5C 203.5,210.5 205.5,210.5 207.5,210.5C 208.497,227.992 208.83,245.659 208.5,263.5C 167.348,256.486 140.515,272.82 128,312.5C 124.399,333.432 129.232,352.099 142.5,368.5C 142.5,369.167 142.833,369.5 143.5,369.5C 143.5,370.167 143.833,370.5 144.5,370.5C 144.5,371.167 144.833,371.5 145.5,371.5C 145.5,372.167 145.833,372.5 146.5,372.5C 146.5,373.167 146.833,373.5 147.5,373.5C 147.5,374.167 147.833,374.5 148.5,374.5C 150.167,375.833 151.833,377.167 153.5,378.5C 161.252,397.919 174.919,411.252 194.5,418.5C 195.167,418.5 195.5,418.833 195.5,419.5C 196.5,419.5 197.5,419.5 198.5,419.5C 199.167,419.5 199.5,419.833 199.5,420.5C 200.5,420.5 201.5,420.5 202.5,420.5C 203.209,421.404 204.209,421.737 205.5,421.5C 206.833,421.5 208.167,421.5 209.5,421.5C 212.5,422.833 215.5,422.833 218.5,421.5C 219.833,421.5 221.167,421.5 222.5,421.5C 223.791,421.737 224.791,421.404 225.5,420.5C 226.5,420.5 227.5,420.5 228.5,420.5C 229.167,420.5 229.5,420.167 229.5,419.5C 230.167,419.5 230.833,419.5 231.5,419.5C 232.492,419.672 233.158,419.338 233.5,418.5C 234.833,418.167 236.167,417.833 237.5,417.5C 238.167,417.5 238.5,417.167 238.5,416.5C 262.504,405.202 275.671,386.202 278,359.5C 278.5,255.167 278.667,150.834 278.5,46.5C 297.833,46.5 317.167,46.5 336.5,46.5 Z"/></g>
<g><path style="opacity:0.973" fill="#00f5ed" d="M 367.5,96.5 C 388.4,114.36 412.733,123.36 440.5,123.5C 440.5,133.167 440.5,142.833 440.5,152.5C 440.167,152.5 439.833,152.5 439.5,152.5C 433.427,150.976 427.427,149.143 421.5,147C 397.204,136.183 379.204,119.35 367.5,96.5 Z"/></g>
<g><path style="opacity:0.979" fill="#fe004e" d="M 439.5,153.5 C 439.5,153.167 439.5,152.833 439.5,152.5C 439.833,152.5 440.167,152.5 440.5,152.5C 448.144,153.414 455.81,154.08 463.5,154.5C 463.5,179.5 463.5,204.5 463.5,229.5C 423.167,232.797 387.334,221.797 356,196.5C 355.667,251.167 355.333,305.833 355,360.5C 350.805,412.42 326.638,451.92 282.5,479C 240.913,500.89 198.246,503.224 154.5,486C 129.827,474.993 109.661,458.493 94,436.5C 92.295,434.423 91.1283,432.09 90.5,429.5C 136.735,470.485 188.735,479.652 246.5,457C 296.046,432.429 324.213,392.596 331,337.5C 331.167,280.83 331.667,224.164 332.5,167.5C 363.266,192.643 398.6,203.976 438.5,201.5C 439.831,193.862 440.498,185.862 440.5,177.5C 440.5,169.326 440.166,161.326 439.5,153.5 Z"/></g>
<g><path style="opacity:1" fill="#340010" d="M 439.5,153.5 C 440.166,161.326 440.5,169.326 440.5,177.5C 440.498,185.862 439.831,193.862 438.5,201.5C 439.484,185.578 439.817,169.578 439.5,153.5 Z"/></g>
<g><path style="opacity:0.98" fill="#00f6ee" d="M 208.5,208.5 C 208.5,209.167 208.167,209.5 207.5,209.5C 205.265,209.205 203.265,209.539 201.5,210.5C 200.167,210.5 198.833,210.5 197.5,210.5C 195.585,210.216 193.919,210.549 192.5,211.5C 191.5,211.5 190.5,211.5 189.5,211.5C 188.209,211.263 187.209,211.596 186.5,212.5C 185.833,212.5 185.167,212.5 184.5,212.5C 183.209,212.263 182.209,212.596 181.5,213.5C 180.833,213.5 180.167,213.5 179.5,213.5C 178.508,213.328 177.842,213.662 177.5,214.5C 176.833,214.5 176.167,214.5 175.5,214.5C 174.508,214.328 173.842,214.662 173.5,215.5C 172.833,215.5 172.167,215.5 171.5,215.5C 170.833,215.5 170.5,215.833 170.5,216.5C 169.833,216.5 169.167,216.5 168.5,216.5C 167.833,216.5 167.5,216.833 167.5,217.5C 166.833,217.5 166.167,217.5 165.5,217.5C 164.833,217.5 164.5,217.833 164.5,218.5C 163.167,218.833 161.833,219.167 160.5,219.5C 159.833,219.5 159.5,219.833 159.5,220.5C 158.167,220.833 156.833,221.167 155.5,221.5C 154.833,221.5 154.5,221.833 154.5,222.5C 154.167,222.5 153.833,222.5 153.5,222.5C 152.833,222.5 152.5,222.833 152.5,223.5C 152.167,223.5 151.833,223.5 151.5,223.5C 150.833,223.5 150.5,223.833 150.5,224.5C 150.167,224.5 149.833,224.5 149.5,224.5C 148.833,224.5 148.5,224.833 148.5,225.5C 147.391,225.557 146.391,225.89 145.5,226.5C 144.833,226.5 144.5,226.833 144.5,227.5C 142.5,228.5 140.5,229.5 138.5,230.5C 137.833,230.5 137.5,230.833 137.5,231.5C 130.432,235.728 123.765,240.561 117.5,246C 80.0794,281.59 64.9127,325.09 72,376.5C 75.5306,394.439 81.364,411.106 89.5,426.5C 56.9164,393.258 43.083,353.258 48,306.5C 56.9905,247.853 89.1571,208.019 144.5,187C 165.448,180.262 186.781,178.429 208.5,181.5C 208.5,190.5 208.5,199.5 208.5,208.5 Z"/></g>
<g><path style="opacity:0.984" fill="#fe004e" d="M 208.5,208.5 C 216.201,208.309 223.868,208.642 231.5,209.5C 231.5,237.167 231.5,264.833 231.5,292.5C 195.928,286.035 170.428,299.035 155,331.5C 149.206,346.806 149.039,362.14 154.5,377.5C 153.833,377.5 153.5,377.833 153.5,378.5C 151.833,377.167 150.167,375.833 148.5,374.5C 147.833,374.5 147.5,374.167 147.5,373.5C 146.833,373.5 146.5,373.167 146.5,372.5C 145.833,372.5 145.5,372.167 145.5,371.5C 144.833,371.5 144.5,371.167 144.5,370.5C 143.833,370.5 143.5,370.167 143.5,369.5C 142.833,369.5 142.5,369.167 142.5,368.5C 129.232,352.099 124.399,333.432 128,312.5C 140.515,272.82 167.348,256.486 208.5,263.5C 208.83,245.659 208.497,227.992 207.5,210.5C 207.5,210.167 207.5,209.833 207.5,209.5C 208.167,209.5 208.5,209.167 208.5,208.5 Z"/></g>
</svg>
