<svg width="17" height="18" viewBox="0 0 17 18" fill="none" xmlns="http://www.w3.org/2000/svg">
<g id="YouTube - Original" clip-path="url(#clip0_6753_41856)">
<path id="Vector" d="M16.6621 4.88367C16.566 4.52201 16.3766 4.19193 16.1128 3.92647C15.8491 3.66101 15.5202 3.46948 15.1592 3.37106C13.8301 3.01367 8.51758 3.01367 8.51758 3.01367C8.51758 3.01367 3.20508 3.01367 1.87599 3.37106C1.51495 3.46948 1.18609 3.66101 0.922323 3.92647C0.65856 4.19193 0.469145 4.52201 0.373033 4.88367C0.0175782 6.21856 0.0175781 9.00231 0.0175781 9.00231C0.0175781 9.00231 0.0175782 11.7861 0.373033 13.1209C0.469145 13.4826 0.65856 13.8127 0.922323 14.0781C1.18609 14.3436 1.51495 14.5351 1.87599 14.6336C3.20508 14.9909 8.51758 14.9909 8.51758 14.9909C8.51758 14.9909 13.8301 14.9909 15.1592 14.6336C15.5202 14.5351 15.8491 14.3436 16.1128 14.0781C16.3766 13.8127 16.566 13.4826 16.6621 13.1209C17.0176 11.7861 17.0176 9.00231 17.0176 9.00231C17.0176 9.00231 17.0176 6.21856 16.6621 4.88367Z" fill="#FF0302"/>
<path id="Vector_2" d="M6.77734 11.5302V6.47461L11.2205 9.00239L6.77734 11.5302Z" fill="#FEFEFE"/>
</g>
<defs>
<clipPath id="clip0_6753_41856">
<rect width="17" height="17" fill="white" transform="translate(0 0.501953)"/>
</clipPath>
</defs>
</svg>
